<svg xmlns="http://www.w3.org/2000/svg" aria-hidden="true" style="display:none">
  <symbol id="icon-facebook" viewBox="0 0 24 24">
    <path fill="currentColor" d="M22 12a10 10 0 1 0-11.56 9.9v-7h-2.2V12h2.2V9.8c0-2.17 1.29-3.36 3.27-3.36.95 0 1.95.17 1.95.17v2.14h-1.1c-1.08 0-1.42.67-1.42 1.35V12h2.42l-.39 2.9h-2.03v7A10 10 0 0 0 22 12Z"/>
  </symbol>
  <symbol id="icon-instagram" viewBox="0 0 24 24">
    <path fill="currentColor" d="M12 2.2c3.2 0 3.58.01 4.85.07 1.17.05 1.97.24 2.43.41.61.24 1.05.53 1.51.99.46.46.75.9.99 1.51.17.46.36 1.26.41 2.43.06 1.27.07 1.65.07 4.85s-.01 3.58-.07 4.85c-.05 1.17-.24 1.97-.41 2.43a3.69 3.69 0 0 1-.99 1.51 3.69 3.69 0 0 1-1.51.99c-.46.17-1.26.36-2.43.41-1.27.06-1.65.07-4.85.07s-3.58-.01-4.85-.07c-1.17-.05-1.97-.24-2.43-.41a3.69 3.69 0 0 1-1.51-.99 3.69 3.69 0 0 1-.99-1.51c-.17-.46-.36-1.26-.41-2.43C2.21 15.58 2.2 15.2 2.2 12s.01-3.58.07-4.85c.05-1.17.24-1.97.41-2.43.24-.61.53-1.05.99-1.51.46-.46.9-.75 1.51-.99.46-.17 1.26-.36 2.43-.41C8.42 2.21 8.8 2.2 12 2.2Zm0 1.8c-3.15 0-3.52.01-4.76.07-.97.04-1.5.21-1.85.35-.47.18-.8.39-1.15.74-.35.35-.56.68-.74 1.15-.14.35-.31.88-.35 1.85-.06 1.24-.07 1.61-.07 4.76s.01 3.52.07 4.76c.04.97.21 1.5.35 1.85.18.47.39.8.74 1.15.35.35.68.56 1.15.74.35.14.88.31 1.85.35 1.24.06 1.61.07 4.76.07s3.52-.01 4.76-.07c.97-.04 1.5-.21 1.85-.35.47-.18.8-.39 1.15-.74.35-.35.56-.68.74-1.15.14-.35.31-.88.35-1.85.06-1.24.07-1.61.07-4.76s-.01-3.52-.07-4.76c-.04-.97-.21-1.5-.35-1.85-.18-.47-.39-.8-.74-1.15a2.09 2.09 0 0 0-1.15-.74c-.35-.14-.88-.31-1.85-.35-1.24-.06-1.61-.07-4.76-.07Zm0 3.2a4.8 4.8 0 1 1 0 9.6 4.8 4.8 0 0 1 0-9.6Zm0 7.8a3 3 0 1 0 0-6 3 3 0 0 0 0 6Zm6.1-8.8a1.12 1.12 0 1 1 0-2.24 1.12 1.12 0 0 1 0 2.24Z"/>
  </symbol>
  <symbol id="icon-tiktok" viewBox="0 0 24 24">
    <path fill="currentColor" d="M17.56 5.04c-.23-.23-.38-.53-.41-.85A4.8 4.8 0 0 1 17.08 4a4.8 4.8 0 0 1-.4-1.94h-3.13v14.26a2.39 2.39 0 1 1-2.39-2.39c.24 0 .47.03.7.09V9.7a6.66 6.66 0 0 0-1-.08 6.7 6.7 0 1 0 6.7 6.7V9.48c.66.49 1.45.84 2.33.97V7.06a3.93 3.93 0 0 1-2.33-.82Z"/>
  </symbol>
  <symbol id="icon-kofi" viewBox="0 0 24 24">
    <path fill="currentColor" d="M4 6h10.5a3.5 3.5 0 0 1 0 7H11l-2.11 3.16A1 1 0 0 1 7 15.62V13H4a2 2 0 0 1-2-2V8a2 2 0 0 1 2-2Zm14.2 0H21a1 1 0 0 1 1 1.06c-.2 2.78-1.66 4.67-4.33 5.54V6Z"/>
  </symbol>
  <symbol id="icon-messenger" viewBox="0 0 24 24">
    <path fill="currentColor" d="M12 2a10 10 0 0 0-8.94 14.47L2 22l5.71-1.88A10 10 0 1 0 12 2Zm.53 6.66 2.02 2.16 3.52-2.16-4.15 4.44-1.9-2.12-3.62 2.12 4.13-4.44Z"/>
  </symbol>
  <symbol id="icon-phone" viewBox="0 0 24 24">
    <path fill="currentColor" d="M6.62 10.79a15.05 15.05 0 0 0 6.59 6.59l2.2-2.2a1 1 0 0 1 1.02-.24c1.12.37 2.33.57 3.57.57a1 1 0 0 1 1 1V21a1 1 0 0 1-1 1C11.07 22 2 12.93 2 2a1 1 0 0 1 1-1h4.5a1 1 0 0 1 1 1c0 1.24.2 2.45.57 3.57a1 1 0 0 1-.25 1.02l-2.2 2.2Z"/>
  </symbol>
  <symbol id="icon-mail" viewBox="0 0 24 24">
    <path fill="currentColor" d="M4 4h16a2 2 0 0 1 2 2v12a2 2 0 0 1-2 2H4a2 2 0 0 1-2-2V6a2 2 0 0 1 2-2Zm0 2v.35l8 5.33 8-5.33V6H4Zm16 12V9.65l-7.33 4.88a1 1 0 0 1-1.34 0L4 9.65V18h16Z"/>
  </symbol>
  <symbol id="icon-menu" viewBox="0 0 24 24">
    <path fill="currentColor" d="M3 6h18v2H3V6Zm0 5h18v2H3v-2Zm0 5h18v2H3v-2Z"/>
  </symbol>
  <symbol id="icon-close" viewBox="0 0 24 24">
    <path fill="currentColor" d="M18.3 5.7 12 12l6.3 6.3-1.4 1.4L10.6 13.4 4.3 19.7 2.9 18.3 9.2 12 2.9 5.7 4.3 4.3l6.3 6.3 6.3-6.3 1.4 1.4Z"/>
  </symbol>
  <symbol id="icon-arrow-left" viewBox="0 0 24 24">
    <path fill="currentColor" d="M10.83 5.17 9.41 6.6l4.58 4.4H4v2h10l-4.6 4.4 1.42 1.43L18 12 10.83 5.17Z"/>
  </symbol>
  <symbol id="icon-external" viewBox="0 0 24 24">
    <path fill="currentColor" d="M14 3h7v7h-2V6.41l-9.29 9.3-1.42-1.42 9.3-9.29H14V3ZM5 5h6v2H6v11h11v-5h2v6a1 1 0 0 1-1 1H5a1 1 0 0 1-1-1V6a1 1 0 0 1 1-1Z"/>
  </symbol>
  <symbol id="icon-check" viewBox="0 0 24 24">
    <path fill="currentColor" d="M9.17 16.17 4.7 11.7l1.4-1.4 3.06 3.06L17.9 4.62l1.41 1.41-10.14 10.14Z"/>
  </symbol>
</svg>
